# xmcd
#
# Track frame offsets:
#	150
#	22633
#	43146
#	60505
#	84090
#	103799
#	125076
#	148037
#	167601
#	187163
#	204362
#	235693
#	257136
#	275078
#
# Disc length: 4044 seconds
#
# Revision: 0
# Processed by: cddbd v1.5.2PL0 Copyright (c) Steve Scherf et al.
# Submitted via: EasyCDDAExtractor 16.0.9.1
#
DISCID=c00fca0e
DTITLE=Mariah Carey - Butterfly
DYEAR=1997
DGENRE=Pop
TTITLE0=Honey
TTITLE1=Butterfly
TTITLE2=My All
TTITLE3=The Roof
TTITLE4=Fourth Of July
TTITLE5=Breakdown
TTITLE6=Babydoll
TTITLE7=Close My Eyes
TTITLE8=Whenever You Call
TTITLE9=Fly Away (Butterfly Reprise)
TTITLE10=The Beautiful Ones
TTITLE11=Outside
TTITLE12=Honey (So So Def Radio Mix) [feat. Da Brat and JD]
TTITLE13=Honey (Def Club Mix)
EXTD=
EXTT0=
EXTT1=
EXTT2=
EXTT3=
EXTT4=
EXTT5=
EXTT6=
EXTT7=
EXTT8=
EXTT9=
EXTT10=
EXTT11=
EXTT12=
EXTT13=
PLAYORDER=
